<?xml version="1.0" encoding="UTF-8" standalone="no"?>
<!DOCTYPE svg PUBLIC "-//W3C//DTD SVG 1.1//EN"
 "http://www.w3.org/Graphics/SVG/1.1/DTD/svg11.dtd">
<!-- Generated by graphviz version 12.2.1 (20241206.2353)
 -->
<!-- Title: classes Pages: 1 -->
<svg width="3582pt" height="881pt"
 viewBox="0.00 0.00 3582.25 881.00" xmlns="http://www.w3.org/2000/svg" xmlns:xlink="http://www.w3.org/1999/xlink">
<g id="graph0" class="graph" transform="scale(1 1) rotate(0) translate(4 877)">
<title>classes</title>
<polygon fill="white" stroke="none" points="-4,4 -4,-877 3578.25,-877 3578.25,4 -4,4"/>
<!-- litchi.csound.player.CsoundPlayer -->
<g id="node1" class="node">
<title>litchi.csound.player.CsoundPlayer</title>
<polygon fill="none" stroke="black" points="168.75,-0.5 168.75,-387.5 381.25,-387.5 381.25,-0.5 168.75,-0.5"/>
<text text-anchor="start" x="237.12" y="-370.2" font-family="Times,serif" font-size="14.00">CsoundPlayer</text>
<polyline fill="none" stroke="black" points="168.75,-363 381.25,-363"/>
<text text-anchor="start" x="195.5" y="-345.7" font-family="Times,serif" font-size="14.00">csound_flags</text>
<text text-anchor="start" x="195.5" y="-329.2" font-family="Times,serif" font-size="14.00">csound_orchestra</text>
<text text-anchor="start" x="195.5" y="-312.7" font-family="Times,serif" font-size="14.00">csound_score : str</text>
<text text-anchor="start" x="195.5" y="-296.2" font-family="Times,serif" font-size="14.00">csound_score_dict</text>
<text text-anchor="start" x="195.5" y="-279.7" font-family="Times,serif" font-size="14.00">dyn_factor : int</text>
<text text-anchor="start" x="195.5" y="-263.2" font-family="Times,serif" font-size="14.00">export_orchestra : NoneType</text>
<text text-anchor="start" x="195.5" y="-246.7" font-family="Times,serif" font-size="14.00">export_score : NoneType</text>
<text text-anchor="start" x="195.5" y="-230.2" font-family="Times,serif" font-size="14.00">export_stems : NoneType</text>
<text text-anchor="start" x="195.5" y="-213.7" font-family="Times,serif" font-size="14.00">export_wav : NoneType</text>
<text text-anchor="start" x="195.5" y="-197.2" font-family="Times,serif" font-size="14.00">message : bool</text>
<polyline fill="none" stroke="black" points="168.75,-190 381.25,-190"/>
<text text-anchor="start" x="176.75" y="-172.7" font-family="Times,serif" font-size="14.00">confirm_export(export_type)</text>
<text text-anchor="start" x="176.75" y="-156.2" font-family="Times,serif" font-size="14.00">create_or_clear_directory(directory)</text>
<text text-anchor="start" x="176.75" y="-139.7" font-family="Times,serif" font-size="14.00">export_stems_wav()</text>
<text text-anchor="start" x="176.75" y="-123.2" font-family="Times,serif" font-size="14.00">handle_stems_export()</text>
<text text-anchor="start" x="176.75" y="-106.7" font-family="Times,serif" font-size="14.00">handle_wav_export()</text>
<text text-anchor="start" x="176.75" y="-90.2" font-family="Times,serif" font-size="14.00">init()</text>
<text text-anchor="start" x="176.75" y="-73.7" font-family="Times,serif" font-size="14.00">perform_csound(cs)</text>
<text text-anchor="start" x="176.75" y="-57.2" font-family="Times,serif" font-size="14.00">play()</text>
<text text-anchor="start" x="176.75" y="-40.7" font-family="Times,serif" font-size="14.00">prepare_main_score()</text>
<text text-anchor="start" x="176.75" y="-24.2" font-family="Times,serif" font-size="14.00">prepare_orchestra(cs)</text>
<text text-anchor="start" x="176.75" y="-7.7" font-family="Times,serif" font-size="14.00">set_csound_options(cs)</text>
</g>
<!-- litchi.csound.main.LitchiCsound -->
<g id="node11" class="node">
<title>litchi.csound.main.LitchiCsound</title>
<polygon fill="none" stroke="black" points="0,-441 0,-729 550,-729 550,-441 0,-441"/>
<text text-anchor="start" x="238.25" y="-711.7" font-family="Times,serif" font-size="14.00">LitchiCsound</text>
<polyline fill="none" stroke="black" points="0,-704.5 550,-704.5"/>
<text text-anchor="start" x="203.38" y="-687.2" font-family="Times,serif" font-size="14.00">csound_flags : list</text>
<text text-anchor="start" x="203.38" y="-670.7" font-family="Times,serif" font-size="14.00">csound_orc : Optional[str]</text>
<text text-anchor="start" x="203.38" y="-654.2" font-family="Times,serif" font-size="14.00">csound_score_dict : dict</text>
<text text-anchor="start" x="203.38" y="-637.7" font-family="Times,serif" font-size="14.00">dynamic_factor</text>
<text text-anchor="start" x="203.38" y="-621.2" font-family="Times,serif" font-size="14.00">flag_path : NoneType</text>
<text text-anchor="start" x="203.38" y="-604.7" font-family="Times,serif" font-size="14.00">orc_files : list</text>
<text text-anchor="start" x="203.38" y="-588.2" font-family="Times,serif" font-size="14.00">player</text>
<polyline fill="none" stroke="black" points="0,-581 550,-581"/>
<text text-anchor="start" x="8" y="-563.7" font-family="Times,serif" font-size="14.00">load(path)</text>
<text text-anchor="start" x="8" y="-547.2" font-family="Times,serif" font-size="14.00">load_directory(path: Path)</text>
<text text-anchor="start" x="8" y="-530.7" font-family="Times,serif" font-size="14.00">load_file(path: Path)</text>
<text text-anchor="start" x="8" y="-514.2" font-family="Times,serif" font-size="14.00">play(export_orchestra, export_wav, apply_dynamic_factor, export_score, export_stems, message)</text>
<text text-anchor="start" x="8" y="-497.7" font-family="Times,serif" font-size="14.00">process_events(node_events, node_tempi)</text>
<text text-anchor="start" x="8" y="-481.2" font-family="Times,serif" font-size="14.00">read()</text>
<text text-anchor="start" x="8" y="-464.7" font-family="Times,serif" font-size="14.00">read_flag()</text>
<text text-anchor="start" x="8" y="-448.2" font-family="Times,serif" font-size="14.00">read_orc()</text>
</g>
<!-- litchi.csound.player.CsoundPlayer&#45;&gt;litchi.csound.main.LitchiCsound -->
<g id="edge9" class="edge">
<title>litchi.csound.player.CsoundPlayer&#45;&gt;litchi.csound.main.LitchiCsound</title>
<path fill="none" stroke="black" d="M275,-387.79C275,-401.12 275,-414.45 275,-427.55"/>
<polygon fill="black" stroke="black" points="275,-427.66 279,-433.66 275,-439.66 271,-433.66 275,-427.66"/>
<text text-anchor="middle" x="291.88" y="-409.2" font-family="Times,serif" font-size="14.00" fill="green">player</text>
</g>
<!-- litchi.csound.score.builder.CsoundScoreBuilder -->
<g id="node2" class="node">
<title>litchi.csound.score.builder.CsoundScoreBuilder</title>
<polygon fill="none" stroke="black" points="399.38,-149 399.38,-239 564.62,-239 564.62,-149 399.38,-149"/>
<text text-anchor="start" x="425.75" y="-221.7" font-family="Times,serif" font-size="14.00">CsoundScoreBuilder</text>
<polyline fill="none" stroke="black" points="399.38,-214.5 564.62,-214.5"/>
<text text-anchor="start" x="448.25" y="-197.2" font-family="Times,serif" font-size="14.00">node_events</text>
<text text-anchor="start" x="448.25" y="-180.7" font-family="Times,serif" font-size="14.00">node_tempi</text>
<polyline fill="none" stroke="black" points="399.38,-173.5 564.62,-173.5"/>
<text text-anchor="start" x="407.38" y="-156.2" font-family="Times,serif" font-size="14.00">create_score_as_dict(): dict</text>
</g>
<!-- litchi.lilypond.processor.param.Duration -->
<g id="node3" class="node">
<title>litchi.lilypond.processor.param.Duration</title>
<polygon fill="none" stroke="black" points="582.25,-169.5 582.25,-218.5 647.75,-218.5 647.75,-169.5 582.25,-169.5"/>
<text text-anchor="start" x="591" y="-201.2" font-family="Times,serif" font-size="14.00">Duration</text>
<polyline fill="none" stroke="black" points="582.25,-194 647.75,-194"/>
<polyline fill="none" stroke="black" points="582.25,-194 647.75,-194"/>
<text text-anchor="start" x="590.25" y="-176.7" font-family="Times,serif" font-size="14.00">process()</text>
</g>
<!-- litchi.lilypond.classes.Processor -->
<g id="node19" class="node">
<title>litchi.lilypond.classes.Processor</title>
<polygon fill="none" stroke="black" points="1088.75,-548.25 1088.75,-621.75 1157.25,-621.75 1157.25,-548.25 1088.75,-548.25"/>
<text text-anchor="start" x="1096.75" y="-604.45" font-family="Times,serif" font-size="14.00">Processor</text>
<polyline fill="none" stroke="black" points="1088.75,-597.25 1157.25,-597.25"/>
<text text-anchor="start" x="1107.25" y="-579.95" font-family="Times,serif" font-size="14.00">nodes</text>
<polyline fill="none" stroke="black" points="1088.75,-572.75 1157.25,-572.75"/>
<text text-anchor="start" x="1097.88" y="-556.45" font-family="Times,serif" font-style="italic" font-size="14.00">process</text>
<text text-anchor="start" x="1139.12" y="-556.45" font-family="Times,serif" font-size="14.00">()</text>
</g>
<!-- litchi.lilypond.processor.param.Duration&#45;&gt;litchi.lilypond.classes.Processor -->
<g id="edge5" class="edge">
<title>litchi.lilypond.processor.param.Duration&#45;&gt;litchi.lilypond.classes.Processor</title>
<path fill="none" stroke="black" d="M612.95,-218.69C610.84,-259 612.76,-341.11 657,-388 716.54,-451.1 764.26,-408.77 845,-440.5 930.72,-474.18 1024.86,-526.21 1078.65,-557.49"/>
<polygon fill="none" stroke="black" points="1076.83,-560.48 1087.22,-562.51 1080.36,-554.44 1076.83,-560.48"/>
</g>
<!-- litchi.lilypond.processor.param.Dynamic -->
<g id="node4" class="node">
<title>litchi.lilypond.processor.param.Dynamic</title>
<polygon fill="none" stroke="black" points="666,-153 666,-235 808,-235 808,-153 666,-153"/>
<text text-anchor="start" x="711.88" y="-217.7" font-family="Times,serif" font-size="14.00">Dynamic</text>
<polyline fill="none" stroke="black" points="666,-210.5 808,-210.5"/>
<polyline fill="none" stroke="black" points="666,-210.5 808,-210.5"/>
<text text-anchor="start" x="674" y="-193.2" font-family="Times,serif" font-size="14.00">interpolate_dynamics()</text>
<text text-anchor="start" x="674" y="-176.7" font-family="Times,serif" font-size="14.00">process()</text>
<text text-anchor="start" x="674" y="-160.2" font-family="Times,serif" font-size="14.00">process_dynamics()</text>
</g>
<!-- litchi.lilypond.processor.param.Dynamic&#45;&gt;litchi.lilypond.classes.Processor -->
<g id="edge6" class="edge">
<title>litchi.lilypond.processor.param.Dynamic&#45;&gt;litchi.lilypond.classes.Processor</title>
<path fill="none" stroke="black" d="M746.08,-235.34C757.13,-277.22 779.16,-342.81 817,-388 890.08,-475.29 1012.18,-536.91 1077.88,-565.67"/>
<polygon fill="none" stroke="black" points="1076.35,-568.83 1086.92,-569.57 1079.12,-562.4 1076.35,-568.83"/>
</g>
<!-- litchi.lilypond.classes.Event -->
<g id="node5" class="node">
<title>litchi.lilypond.classes.Event</title>
<polygon fill="none" stroke="black" points="1602.25,-74.75 1602.25,-313.25 1817.75,-313.25 1817.75,-74.75 1602.25,-74.75"/>
<text text-anchor="start" x="1694.25" y="-295.95" font-family="Times,serif" font-size="14.00">Event</text>
<polyline fill="none" stroke="black" points="1602.25,-288.75 1817.75,-288.75"/>
<text text-anchor="start" x="1610.25" y="-271.45" font-family="Times,serif" font-size="14.00">articulations : List[lily.Articulations]</text>
<text text-anchor="start" x="1610.25" y="-254.95" font-family="Times,serif" font-size="14.00">channels : NoneType, int</text>
<text text-anchor="start" x="1610.25" y="-238.45" font-family="Times,serif" font-size="14.00">comment_name : str</text>
<text text-anchor="start" x="1610.25" y="-221.95" font-family="Times,serif" font-size="14.00">dur</text>
<text text-anchor="start" x="1610.25" y="-205.45" font-family="Times,serif" font-size="14.00">dyn : Optional[float]</text>
<text text-anchor="start" x="1610.25" y="-188.95" font-family="Times,serif" font-size="14.00">env : int</text>
<text text-anchor="start" x="1610.25" y="-172.45" font-family="Times,serif" font-size="14.00">freq : Optional[float]</text>
<text text-anchor="start" x="1610.25" y="-155.95" font-family="Times,serif" font-size="14.00">name : NoneType, Optional[str]</text>
<text text-anchor="start" x="1610.25" y="-139.45" font-family="Times,serif" font-size="14.00">octave : Optional[int]</text>
<text text-anchor="start" x="1610.25" y="-122.95" font-family="Times,serif" font-size="14.00">onset : float</text>
<text text-anchor="start" x="1610.25" y="-106.45" font-family="Times,serif" font-size="14.00">pitch : Optional[str]</text>
<polyline fill="none" stroke="black" points="1602.25,-99.25 1817.75,-99.25"/>
<text text-anchor="start" x="1708.12" y="-81.95" font-family="Times,serif" font-size="14.00"> </text>
</g>
<!-- litchi.lilypond.processor.param.Frequency -->
<g id="node6" class="node">
<title>litchi.lilypond.processor.param.Frequency</title>
<polygon fill="none" stroke="black" points="826.38,-153 826.38,-235 1069.62,-235 1069.62,-153 826.38,-153"/>
<text text-anchor="start" x="919.5" y="-217.7" font-family="Times,serif" font-size="14.00">Frequency</text>
<polyline fill="none" stroke="black" points="826.38,-210.5 1069.62,-210.5"/>
<polyline fill="none" stroke="black" points="826.38,-210.5 1069.62,-210.5"/>
<text text-anchor="start" x="834.38" y="-193.2" font-family="Times,serif" font-size="14.00">process()</text>
<text text-anchor="start" x="834.38" y="-176.7" font-family="Times,serif" font-size="14.00">process_markup_frequency(event: Event)</text>
<text text-anchor="start" x="834.38" y="-160.2" font-family="Times,serif" font-size="14.00">process_note_frequency(event)</text>
</g>
<!-- litchi.lilypond.processor.param.Frequency&#45;&gt;litchi.lilypond.classes.Processor -->
<g id="edge7" class="edge">
<title>litchi.lilypond.processor.param.Frequency&#45;&gt;litchi.lilypond.classes.Processor</title>
<path fill="none" stroke="black" d="M966.07,-235.16C998.72,-307.75 1067.38,-460.36 1102.04,-537.4"/>
<polygon fill="none" stroke="black" points="1098.78,-538.69 1106.07,-546.38 1105.16,-535.82 1098.78,-538.69"/>
</g>
<!-- litchi.lilypond.processor.articulation.Glissando -->
<g id="node7" class="node">
<title>litchi.lilypond.processor.articulation.Glissando</title>
<polygon fill="none" stroke="black" points="1088,-169.5 1088,-218.5 1158,-218.5 1158,-169.5 1088,-169.5"/>
<text text-anchor="start" x="1096" y="-201.2" font-family="Times,serif" font-size="14.00">Glissando</text>
<polyline fill="none" stroke="black" points="1088,-194 1158,-194"/>
<polyline fill="none" stroke="black" points="1088,-194 1158,-194"/>
<text text-anchor="start" x="1098.25" y="-176.7" font-family="Times,serif" font-size="14.00">process()</text>
</g>
<!-- litchi.lilypond.processor.articulation.Glissando&#45;&gt;litchi.lilypond.classes.Processor -->
<g id="edge1" class="edge">
<title>litchi.lilypond.processor.articulation.Glissando&#45;&gt;litchi.lilypond.classes.Processor</title>
<path fill="none" stroke="black" d="M1123,-218.75C1123,-281.47 1123,-452.45 1123,-536.32"/>
<polygon fill="none" stroke="black" points="1119.5,-536.29 1123,-546.29 1126.5,-536.29 1119.5,-536.29"/>
</g>
<!-- litchi.lilypond.processor.node.InstrumentStaff -->
<g id="node8" class="node">
<title>litchi.lilypond.processor.node.InstrumentStaff</title>
<polygon fill="none" stroke="black" points="1175.75,-157.25 1175.75,-230.75 1340.25,-230.75 1340.25,-157.25 1175.75,-157.25"/>
<text text-anchor="start" x="1215.25" y="-213.45" font-family="Times,serif" font-size="14.00">InstrumentStaff</text>
<polyline fill="none" stroke="black" points="1175.75,-206.25 1340.25,-206.25"/>
<text text-anchor="start" x="1224.62" y="-188.95" font-family="Times,serif" font-size="14.00">csound_info</text>
<polyline fill="none" stroke="black" points="1175.75,-181.75 1340.25,-181.75"/>
<text text-anchor="start" x="1183.75" y="-164.45" font-family="Times,serif" font-size="14.00">process(): List[List[Event]]</text>
</g>
<!-- litchi.lilypond.processor.node.InstrumentStaff&#45;&gt;litchi.lilypond.classes.Processor -->
<g id="edge3" class="edge">
<title>litchi.lilypond.processor.node.InstrumentStaff&#45;&gt;litchi.lilypond.classes.Processor</title>
<path fill="none" stroke="black" d="M1245.42,-231.25C1220.82,-302.13 1166.37,-459.02 1139.15,-537.46"/>
<polygon fill="none" stroke="black" points="1135.97,-535.96 1135.99,-546.56 1142.58,-538.26 1135.97,-535.96"/>
</g>
<!-- litchi.lib.scala.Interval -->
<g id="node9" class="node">
<title>litchi.lib.scala.Interval</title>
<polygon fill="none" stroke="black" points="1835.88,-66.5 1835.88,-321.5 1986.12,-321.5 1986.12,-66.5 1835.88,-66.5"/>
<text text-anchor="start" x="1890" y="-304.2" font-family="Times,serif" font-size="14.00">Interval</text>
<polyline fill="none" stroke="black" points="1835.88,-297 1986.12,-297"/>
<text text-anchor="start" x="1843.88" y="-279.7" font-family="Times,serif" font-size="14.00">abs_cents</text>
<text text-anchor="start" x="1843.88" y="-263.2" font-family="Times,serif" font-size="14.00">cents : str | None</text>
<text text-anchor="start" x="1843.88" y="-246.7" font-family="Times,serif" font-size="14.00">denominator_limit : int</text>
<text text-anchor="start" x="1843.88" y="-230.2" font-family="Times,serif" font-size="14.00">interval_name_ratio : str</text>
<text text-anchor="start" x="1843.88" y="-213.7" font-family="Times,serif" font-size="14.00">name : str | None</text>
<text text-anchor="start" x="1843.88" y="-197.2" font-family="Times,serif" font-size="14.00">pitch_class_name : str</text>
<text text-anchor="start" x="1843.88" y="-180.7" font-family="Times,serif" font-size="14.00">pitch_class_num</text>
<text text-anchor="start" x="1843.88" y="-164.2" font-family="Times,serif" font-size="14.00">ratio : Fraction</text>
<text text-anchor="start" x="1843.88" y="-147.7" font-family="Times,serif" font-size="14.00">semitones</text>
<text text-anchor="start" x="1843.88" y="-131.2" font-family="Times,serif" font-size="14.00">tolerance : int</text>
<text text-anchor="start" x="1843.88" y="-114.7" font-family="Times,serif" font-size="14.00">value : float</text>
<polyline fill="none" stroke="black" points="1835.88,-107.5 1986.12,-107.5"/>
<text text-anchor="start" x="1847.25" y="-90.2" font-family="Times,serif" font-size="14.00">assign_interval_name()</text>
<text text-anchor="start" x="1847.25" y="-73.7" font-family="Times,serif" font-size="14.00">process()</text>
</g>
<!-- litchi.main.Litchi -->
<g id="node10" class="node">
<title>litchi.main.Litchi</title>
<polygon fill="none" stroke="black" points="457.5,-782.5 457.5,-872.5 518.5,-872.5 518.5,-782.5 457.5,-782.5"/>
<text text-anchor="start" x="471.88" y="-855.2" font-family="Times,serif" font-size="14.00">Litchi</text>
<polyline fill="none" stroke="black" points="457.5,-848 518.5,-848"/>
<text text-anchor="start" x="465.5" y="-830.7" font-family="Times,serif" font-size="14.00">csound</text>
<text text-anchor="start" x="465.5" y="-814.2" font-family="Times,serif" font-size="14.00">lilypond</text>
<polyline fill="none" stroke="black" points="457.5,-807 518.5,-807"/>
<text text-anchor="start" x="486.12" y="-789.7" font-family="Times,serif" font-size="14.00"> </text>
</g>
<!-- litchi.csound.main.LitchiCsound&#45;&gt;litchi.main.Litchi -->
<g id="edge8" class="edge">
<title>litchi.csound.main.LitchiCsound&#45;&gt;litchi.main.Litchi</title>
<path fill="none" stroke="black" d="M401.98,-729.37C418.79,-748.35 434.89,-766.53 448.52,-781.93"/>
<polygon fill="black" stroke="black" points="448.55,-781.96 455.53,-783.8 456.51,-790.94 449.54,-789.11 448.55,-781.96"/>
<text text-anchor="middle" x="450" y="-750.7" font-family="Times,serif" font-size="14.00" fill="green">csound</text>
</g>
<!-- litchi.lilypond.main.LitchiLilyPond -->
<g id="node12" class="node">
<title>litchi.lilypond.main.LitchiLilyPond</title>
<polygon fill="none" stroke="black" points="567.62,-457.5 567.62,-712.5 836.38,-712.5 836.38,-457.5 567.62,-457.5"/>
<text text-anchor="start" x="660.75" y="-695.2" font-family="Times,serif" font-size="14.00">LitchiLilyPond</text>
<polyline fill="none" stroke="black" points="567.62,-688 836.38,-688"/>
<text text-anchor="start" x="638.25" y="-670.7" font-family="Times,serif" font-size="14.00">file_path : str</text>
<text text-anchor="start" x="638.25" y="-654.2" font-family="Times,serif" font-size="14.00">instrument_events : list</text>
<text text-anchor="start" x="638.25" y="-637.7" font-family="Times,serif" font-size="14.00">instrument_staves : list</text>
<text text-anchor="start" x="638.25" y="-621.2" font-family="Times,serif" font-size="14.00">language : str</text>
<text text-anchor="start" x="638.25" y="-604.7" font-family="Times,serif" font-size="14.00">metric_staff</text>
<text text-anchor="start" x="638.25" y="-588.2" font-family="Times,serif" font-size="14.00">scope : Scope</text>
<text text-anchor="start" x="638.25" y="-571.7" font-family="Times,serif" font-size="14.00">tempi : list</text>
<text text-anchor="start" x="638.25" y="-555.2" font-family="Times,serif" font-size="14.00">tree</text>
<polyline fill="none" stroke="black" points="567.62,-548 836.38,-548"/>
<text text-anchor="start" x="575.62" y="-530.7" font-family="Times,serif" font-size="14.00">analyse()</text>
<text text-anchor="start" x="575.62" y="-514.2" font-family="Times,serif" font-size="14.00">apply_processors(processor_classes)</text>
<text text-anchor="start" x="575.62" y="-497.7" font-family="Times,serif" font-size="14.00">find_staves()</text>
<text text-anchor="start" x="575.62" y="-481.2" font-family="Times,serif" font-size="14.00">load(file_path: str, language: str, log_path: str)</text>
<text text-anchor="start" x="575.62" y="-464.7" font-family="Times,serif" font-size="14.00">replace_includes()</text>
</g>
<!-- litchi.lilypond.main.LitchiLilyPond&#45;&gt;litchi.main.Litchi -->
<g id="edge10" class="edge">
<title>litchi.lilypond.main.LitchiLilyPond&#45;&gt;litchi.main.Litchi</title>
<path fill="none" stroke="black" d="M589.05,-712.94C566.87,-737.86 545.04,-762.4 527.37,-782.25"/>
<polygon fill="black" stroke="black" points="527.37,-782.26 526.37,-789.4 519.39,-791.22 520.39,-784.08 527.37,-782.26"/>
<text text-anchor="middle" x="579.72" y="-750.7" font-family="Times,serif" font-size="14.00" fill="green">lilypond</text>
</g>
<!-- litchi.lib.litchi_path.LitchiPath -->
<g id="node13" class="node">
<title>litchi.lib.litchi_path.LitchiPath</title>
<polygon fill="none" stroke="black" points="2004.38,-83 2004.38,-305 2163.62,-305 2163.62,-83 2004.38,-83"/>
<text text-anchor="start" x="2055.88" y="-287.7" font-family="Times,serif" font-size="14.00">LitchiPath</text>
<polyline fill="none" stroke="black" points="2004.38,-280.5 2163.62,-280.5"/>
<text text-anchor="start" x="2012.38" y="-263.2" font-family="Times,serif" font-size="14.00">build_dir</text>
<text text-anchor="start" x="2012.38" y="-246.7" font-family="Times,serif" font-size="14.00">csound_dir : NoneType</text>
<text text-anchor="start" x="2012.38" y="-230.2" font-family="Times,serif" font-size="14.00">project_main_dir</text>
<text text-anchor="start" x="2012.38" y="-213.7" font-family="Times,serif" font-size="14.00">project_main_file</text>
<text text-anchor="start" x="2012.38" y="-197.2" font-family="Times,serif" font-size="14.00">project_name</text>
<text text-anchor="start" x="2012.38" y="-180.7" font-family="Times,serif" font-size="14.00">stylesheet_dir : NoneType</text>
<polyline fill="none" stroke="black" points="2004.38,-173.5 2163.62,-173.5"/>
<text text-anchor="start" x="2013.12" y="-156.2" font-family="Times,serif" font-size="14.00">find_build()</text>
<text text-anchor="start" x="2013.12" y="-139.7" font-family="Times,serif" font-size="14.00">find_dir(string)</text>
<text text-anchor="start" x="2013.12" y="-123.2" font-family="Times,serif" font-size="14.00">generate_build()</text>
<text text-anchor="start" x="2013.12" y="-106.7" font-family="Times,serif" font-size="14.00">generate_working_paths()</text>
<text text-anchor="start" x="2013.12" y="-90.2" font-family="Times,serif" font-size="14.00">show()</text>
</g>
<!-- litchi.lib.server.run.LitchiServer -->
<g id="node14" class="node">
<title>litchi.lib.server.run.LitchiServer</title>
<polygon fill="none" stroke="black" points="2182,-25.25 2182,-362.75 2342,-362.75 2342,-25.25 2182,-25.25"/>
<text text-anchor="start" x="2228.25" y="-345.45" font-family="Times,serif" font-size="14.00">LitchiServer</text>
<polyline fill="none" stroke="black" points="2182,-338.25 2342,-338.25"/>
<text text-anchor="start" x="2190" y="-320.95" font-family="Times,serif" font-size="14.00">app : Flask</text>
<text text-anchor="start" x="2190" y="-304.45" font-family="Times,serif" font-size="14.00">current_time</text>
<text text-anchor="start" x="2190" y="-287.95" font-family="Times,serif" font-size="14.00">html_template : str</text>
<text text-anchor="start" x="2190" y="-271.45" font-family="Times,serif" font-size="14.00">last_mtimes</text>
<text text-anchor="start" x="2190" y="-254.95" font-family="Times,serif" font-size="14.00">main_file</text>
<text text-anchor="start" x="2190" y="-238.45" font-family="Times,serif" font-size="14.00">main_module : NoneType</text>
<text text-anchor="start" x="2190" y="-221.95" font-family="Times,serif" font-size="14.00">path</text>
<text text-anchor="start" x="2190" y="-205.45" font-family="Times,serif" font-size="14.00">reload_modules : list</text>
<text text-anchor="start" x="2190" y="-188.95" font-family="Times,serif" font-size="14.00">shared_main</text>
<text text-anchor="start" x="2190" y="-172.45" font-family="Times,serif" font-size="14.00">socketio : SocketIO</text>
<text text-anchor="start" x="2190" y="-155.95" font-family="Times,serif" font-size="14.00">watched_files : list</text>
<polyline fill="none" stroke="black" points="2182,-148.75 2342,-148.75"/>
<text text-anchor="start" x="2199.38" y="-131.45" font-family="Times,serif" font-size="14.00">default_shared_main()</text>
<text text-anchor="start" x="2199.38" y="-114.95" font-family="Times,serif" font-size="14.00">reload()</text>
<text text-anchor="start" x="2199.38" y="-98.45" font-family="Times,serif" font-size="14.00">reload_lib()</text>
<text text-anchor="start" x="2199.38" y="-81.95" font-family="Times,serif" font-size="14.00">reload_main_module()</text>
<text text-anchor="start" x="2199.38" y="-65.45" font-family="Times,serif" font-size="14.00">run()</text>
<text text-anchor="start" x="2199.38" y="-48.95" font-family="Times,serif" font-size="14.00">setup_routes()</text>
<text text-anchor="start" x="2199.38" y="-32.45" font-family="Times,serif" font-size="14.00">watch_files()</text>
</g>
<!-- litchi.lib.utils_abjad.LitchiStaff -->
<g id="node15" class="node">
<title>litchi.lib.utils_abjad.LitchiStaff</title>
<polygon fill="none" stroke="black" points="2359.88,-124.25 2359.88,-263.75 2504.12,-263.75 2504.12,-124.25 2359.88,-124.25"/>
<text text-anchor="start" x="2402.75" y="-246.45" font-family="Times,serif" font-size="14.00">LitchiStaff</text>
<polyline fill="none" stroke="black" points="2359.88,-239.25 2504.12,-239.25"/>
<text text-anchor="start" x="2367.88" y="-221.95" font-family="Times,serif" font-size="14.00">channels : int</text>
<text text-anchor="start" x="2367.88" y="-205.45" font-family="Times,serif" font-size="14.00">csound_instrument : str</text>
<text text-anchor="start" x="2367.88" y="-188.95" font-family="Times,serif" font-size="14.00">lilypond_type : str</text>
<text text-anchor="start" x="2367.88" y="-172.45" font-family="Times,serif" font-size="14.00">staff_name_visible</text>
<text text-anchor="start" x="2367.88" y="-155.95" font-family="Times,serif" font-size="14.00">staves : list</text>
<polyline fill="none" stroke="black" points="2359.88,-148.75 2504.12,-148.75"/>
<text text-anchor="start" x="2382.12" y="-131.45" font-family="Times,serif" font-size="14.00">make(staff_index)</text>
</g>
<!-- litchi.lib.server.static.LitchiStaticServer -->
<g id="node16" class="node">
<title>litchi.lib.server.static.LitchiStaticServer</title>
<polygon fill="none" stroke="black" points="2522.5,-124.25 2522.5,-263.75 2649.5,-263.75 2649.5,-124.25 2522.5,-124.25"/>
<text text-anchor="start" x="2536.88" y="-246.45" font-family="Times,serif" font-size="14.00">LitchiStaticServer</text>
<polyline fill="none" stroke="black" points="2522.5,-239.25 2649.5,-239.25"/>
<text text-anchor="start" x="2530.5" y="-221.95" font-family="Times,serif" font-size="14.00">app : Flask</text>
<text text-anchor="start" x="2530.5" y="-205.45" font-family="Times,serif" font-size="14.00">path</text>
<text text-anchor="start" x="2530.5" y="-188.95" font-family="Times,serif" font-size="14.00">server_started : bool</text>
<text text-anchor="start" x="2530.5" y="-172.45" font-family="Times,serif" font-size="14.00">socketio : SocketIO</text>
<polyline fill="none" stroke="black" points="2522.5,-165.25 2649.5,-165.25"/>
<text text-anchor="start" x="2547.38" y="-147.95" font-family="Times,serif" font-size="14.00">run()</text>
<text text-anchor="start" x="2547.38" y="-131.45" font-family="Times,serif" font-size="14.00">setup_routes()</text>
</g>
<!-- litchi.lib.utils_abjad.MetricStaff -->
<g id="node17" class="node">
<title>litchi.lib.utils_abjad.MetricStaff</title>
<polygon fill="none" stroke="black" points="2667.88,-116 2667.88,-272 2842.12,-272 2842.12,-116 2667.88,-116"/>
<text text-anchor="start" x="2723.5" y="-254.7" font-family="Times,serif" font-size="14.00">MetricStaff</text>
<polyline fill="none" stroke="black" points="2667.88,-247.5 2842.12,-247.5"/>
<text text-anchor="start" x="2695.38" y="-230.2" font-family="Times,serif" font-size="14.00">duration : tuple</text>
<text text-anchor="start" x="2695.38" y="-213.7" font-family="Times,serif" font-size="14.00">measures : NoneType</text>
<text text-anchor="start" x="2695.38" y="-197.2" font-family="Times,serif" font-size="14.00">tempo : int</text>
<text text-anchor="start" x="2695.38" y="-180.7" font-family="Times,serif" font-size="14.00">tempo_diff : int</text>
<text text-anchor="start" x="2695.38" y="-164.2" font-family="Times,serif" font-size="14.00">time_signatures</text>
<polyline fill="none" stroke="black" points="2667.88,-157 2842.12,-157"/>
<text text-anchor="start" x="2675.88" y="-139.7" font-family="Times,serif" font-size="14.00">create_time_signatures(staff)</text>
<text text-anchor="start" x="2675.88" y="-123.2" font-family="Times,serif" font-size="14.00">make(staff_index)</text>
</g>
<!-- litchi.lib.const.Partial -->
<g id="node18" class="node">
<title>litchi.lib.const.Partial</title>
<polygon fill="none" stroke="black" points="2860.62,-107.75 2860.62,-280.25 2979.38,-280.25 2979.38,-107.75 2860.62,-107.75"/>
<text text-anchor="start" x="2902.38" y="-262.95" font-family="Times,serif" font-size="14.00">Partial</text>
<polyline fill="none" stroke="black" points="2860.62,-255.75 2979.38,-255.75"/>
<text text-anchor="start" x="2868.62" y="-238.45" font-family="Times,serif" font-size="14.00">bpm</text>
<text text-anchor="start" x="2868.62" y="-221.95" font-family="Times,serif" font-size="14.00">freq : float</text>
<text text-anchor="start" x="2868.62" y="-205.45" font-family="Times,serif" font-size="14.00">interval_name : str</text>
<text text-anchor="start" x="2868.62" y="-188.95" font-family="Times,serif" font-size="14.00">pitch_name</text>
<text text-anchor="start" x="2868.62" y="-172.45" font-family="Times,serif" font-size="14.00">position</text>
<text text-anchor="start" x="2868.62" y="-155.95" font-family="Times,serif" font-size="14.00">ratio</text>
<text text-anchor="start" x="2868.62" y="-139.45" font-family="Times,serif" font-size="14.00">string : str</text>
<polyline fill="none" stroke="black" points="2860.62,-132.25 2979.38,-132.25"/>
<text text-anchor="start" x="2918.12" y="-114.95" font-family="Times,serif" font-size="14.00"> </text>
</g>
<!-- litchi.lilypond.classes.Rest -->
<g id="node20" class="node">
<title>litchi.lilypond.classes.Rest</title>
<polygon fill="none" stroke="black" points="2997.5,-149 2997.5,-239 3124.5,-239 3124.5,-149 2997.5,-149"/>
<text text-anchor="start" x="3049" y="-221.7" font-family="Times,serif" font-size="14.00">Rest</text>
<polyline fill="none" stroke="black" points="2997.5,-214.5 3124.5,-214.5"/>
<text text-anchor="start" x="3005.5" y="-197.2" font-family="Times,serif" font-size="14.00">name : Optional[str]</text>
<text text-anchor="start" x="3005.5" y="-180.7" font-family="Times,serif" font-size="14.00">onset : float</text>
<polyline fill="none" stroke="black" points="2997.5,-173.5 3124.5,-173.5"/>
<text text-anchor="start" x="3059.12" y="-156.2" font-family="Times,serif" font-size="14.00"> </text>
</g>
<!-- litchi.lib.scala.Scala -->
<g id="node21" class="node">
<title>litchi.lib.scala.Scala</title>
<polygon fill="none" stroke="black" points="3142.75,-33.5 3142.75,-354.5 3433.25,-354.5 3433.25,-33.5 3142.75,-33.5"/>
<text text-anchor="start" x="3273.38" y="-337.2" font-family="Times,serif" font-size="14.00">Scala</text>
<polyline fill="none" stroke="black" points="3142.75,-330 3433.25,-330"/>
<text text-anchor="start" x="3193.88" y="-312.7" font-family="Times,serif" font-size="14.00">chromatic_intervals : dict</text>
<text text-anchor="start" x="3193.88" y="-296.2" font-family="Times,serif" font-size="14.00">denominator_limit : int</text>
<text text-anchor="start" x="3193.88" y="-279.7" font-family="Times,serif" font-size="14.00">name : str | None</text>
<text text-anchor="start" x="3193.88" y="-263.2" font-family="Times,serif" font-size="14.00">origin_decimal_value</text>
<text text-anchor="start" x="3193.88" y="-246.7" font-family="Times,serif" font-size="14.00">origin_named_pitch : NamedPitch</text>
<text text-anchor="start" x="3193.88" y="-230.2" font-family="Times,serif" font-size="14.00">origin_value : str | int | float</text>
<text text-anchor="start" x="3193.88" y="-213.7" font-family="Times,serif" font-size="14.00">quarter_tones : bool</text>
<text text-anchor="start" x="3193.88" y="-197.2" font-family="Times,serif" font-size="14.00">tolerance : int</text>
<text text-anchor="start" x="3193.88" y="-180.7" font-family="Times,serif" font-size="14.00">values : list[float]</text>
<polyline fill="none" stroke="black" points="3142.75,-173.5 3433.25,-173.5"/>
<text text-anchor="start" x="3150.75" y="-156.2" font-family="Times,serif" font-size="14.00">ajust_unison_values(interval)</text>
<text text-anchor="start" x="3150.75" y="-139.7" font-family="Times,serif" font-size="14.00">calculate_harmonics(freq, n)</text>
<text text-anchor="start" x="3150.75" y="-123.2" font-family="Times,serif" font-size="14.00">edo(n: int)</text>
<text text-anchor="start" x="3150.75" y="-106.7" font-family="Times,serif" font-size="14.00">evoke(scala_name: str)</text>
<text text-anchor="start" x="3150.75" y="-90.2" font-family="Times,serif" font-size="14.00">export(output_dir: str)</text>
<text text-anchor="start" x="3150.75" y="-73.7" font-family="Times,serif" font-size="14.00">find_nearest_harmonics(harmonics1, harmonics2)</text>
<text text-anchor="start" x="3150.75" y="-57.2" font-family="Times,serif" font-size="14.00">get_interval(string: str, transpose, print_modulo)</text>
<text text-anchor="start" x="3150.75" y="-40.7" font-family="Times,serif" font-size="14.00">make()</text>
</g>
<!-- litchi.lilypond.classes.Tempo -->
<g id="node22" class="node">
<title>litchi.lilypond.classes.Tempo</title>
<polygon fill="none" stroke="black" points="3451.75,-140.75 3451.75,-247.25 3574.25,-247.25 3574.25,-140.75 3451.75,-140.75"/>
<text text-anchor="start" x="3493.5" y="-229.95" font-family="Times,serif" font-size="14.00">Tempo</text>
<polyline fill="none" stroke="black" points="3451.75,-222.75 3574.25,-222.75"/>
<text text-anchor="start" x="3459.75" y="-205.45" font-family="Times,serif" font-size="14.00">bpm : Optional[int]</text>
<text text-anchor="start" x="3459.75" y="-188.95" font-family="Times,serif" font-size="14.00">div : Optional[str]</text>
<text text-anchor="start" x="3459.75" y="-172.45" font-family="Times,serif" font-size="14.00">onset : float</text>
<polyline fill="none" stroke="black" points="3451.75,-165.25 3574.25,-165.25"/>
<text text-anchor="start" x="3511.12" y="-147.95" font-family="Times,serif" font-size="14.00"> </text>
</g>
<!-- litchi.lilypond.processor.node.TempoStaff -->
<g id="node23" class="node">
<title>litchi.lilypond.processor.node.TempoStaff</title>
<polygon fill="none" stroke="black" points="1358,-169.5 1358,-218.5 1500,-218.5 1500,-169.5 1358,-169.5"/>
<text text-anchor="start" x="1396.38" y="-201.2" font-family="Times,serif" font-size="14.00">TempoStaff</text>
<polyline fill="none" stroke="black" points="1358,-194 1500,-194"/>
<polyline fill="none" stroke="black" points="1358,-194 1500,-194"/>
<text text-anchor="start" x="1366" y="-176.7" font-family="Times,serif" font-size="14.00">process(): List[Tempo]</text>
</g>
<!-- litchi.lilypond.processor.node.TempoStaff&#45;&gt;litchi.lilypond.classes.Processor -->
<g id="edge4" class="edge">
<title>litchi.lilypond.processor.node.TempoStaff&#45;&gt;litchi.lilypond.classes.Processor</title>
<path fill="none" stroke="black" d="M1423.01,-218.74C1412.55,-257.02 1388.24,-333.57 1349,-388 1298.07,-458.65 1216.89,-520.84 1166.94,-555.34"/>
<polygon fill="none" stroke="black" points="1165.22,-552.28 1158.94,-560.81 1169.17,-558.06 1165.22,-552.28"/>
</g>
<!-- litchi.lilypond.processor.articulation.Tie -->
<g id="node24" class="node">
<title>litchi.lilypond.processor.articulation.Tie</title>
<polygon fill="none" stroke="black" points="1518.25,-169.5 1518.25,-218.5 1583.75,-218.5 1583.75,-169.5 1518.25,-169.5"/>
<text text-anchor="start" x="1542" y="-201.2" font-family="Times,serif" font-size="14.00">Tie</text>
<polyline fill="none" stroke="black" points="1518.25,-194 1583.75,-194"/>
<polyline fill="none" stroke="black" points="1518.25,-194 1583.75,-194"/>
<text text-anchor="start" x="1526.25" y="-176.7" font-family="Times,serif" font-size="14.00">process()</text>
</g>
<!-- litchi.lilypond.processor.articulation.Tie&#45;&gt;litchi.lilypond.classes.Processor -->
<g id="edge2" class="edge">
<title>litchi.lilypond.processor.articulation.Tie&#45;&gt;litchi.lilypond.classes.Processor</title>
<path fill="none" stroke="black" d="M1552.04,-218.76C1552.52,-258.09 1548.09,-337.38 1509,-388 1421.56,-501.22 1250.75,-554.43 1168.89,-574.28"/>
<polygon fill="none" stroke="black" points="1168.12,-570.87 1159.19,-576.57 1169.72,-577.68 1168.12,-570.87"/>
</g>
</g>
</svg>
