<?xml version="1.0" encoding="UTF-8" standalone="no"?>
<!DOCTYPE svg PUBLIC "-//W3C//DTD SVG 1.1//EN"
 "http://www.w3.org/Graphics/SVG/1.1/DTD/svg11.dtd">
<!-- Generated by graphviz version 12.2.1 (20241206.2353)
 -->
<!-- Title: packages Pages: 1 -->
<svg width="1967pt" height="404pt"
 viewBox="0.00 0.00 1966.62 404.00" xmlns="http://www.w3.org/2000/svg" xmlns:xlink="http://www.w3.org/1999/xlink">
<g id="graph0" class="graph" transform="scale(1 1) rotate(0) translate(4 400)">
<title>packages</title>
<polygon fill="white" stroke="none" points="-4,4 -4,-400 1962.62,-400 1962.62,4 -4,4"/>
<!-- litchi -->
<g id="node1" class="node">
<title>litchi</title>
<polygon fill="none" stroke="black" points="642.62,-36 588.62,-36 588.62,0 642.62,0 642.62,-36"/>
<text text-anchor="middle" x="615.62" y="-12.95" font-family="Times,serif" font-size="14.00">litchi</text>
</g>
<!-- litchi.lib.litchi_path -->
<g id="node14" class="node">
<title>litchi.lib.litchi_path</title>
<polygon fill="none" stroke="black" points="497.25,-108 374,-108 374,-72 497.25,-72 497.25,-108"/>
<text text-anchor="middle" x="435.62" y="-84.95" font-family="Times,serif" font-size="14.00">litchi.lib.litchi_path</text>
</g>
<!-- litchi&#45;&gt;litchi.lib.litchi_path -->
<g id="edge1" class="edge">
<title>litchi&#45;&gt;litchi.lib.litchi_path</title>
<path fill="none" stroke="black" d="M588.29,-29.63C562.46,-39.67 522.97,-55.03 490.63,-67.61"/>
<polygon fill="black" stroke="black" points="481.54,-71.14 489.23,-63.33 485.06,-69.77 490.86,-67.52 490.86,-67.52 490.86,-67.52 485.06,-69.77 492.49,-71.71 481.54,-71.14"/>
</g>
<!-- litchi.lib.server.run -->
<g id="node18" class="node">
<title>litchi.lib.server.run</title>
<polygon fill="none" stroke="black" points="727.38,-108 607.88,-108 607.88,-72 727.38,-72 727.38,-108"/>
<text text-anchor="middle" x="667.62" y="-84.95" font-family="Times,serif" font-size="14.00">litchi.lib.server.run</text>
</g>
<!-- litchi&#45;&gt;litchi.lib.server.run -->
<g id="edge2" class="edge">
<title>litchi&#45;&gt;litchi.lib.server.run</title>
<path fill="none" stroke="black" d="M628.48,-36.3C634.46,-44.36 641.7,-54.11 648.32,-63.02"/>
<polygon fill="black" stroke="black" points="654.19,-70.92 644.62,-65.57 651.94,-67.88 648.23,-62.89 648.23,-62.89 648.23,-62.89 651.94,-67.88 651.84,-60.21 654.19,-70.92"/>
</g>
<!-- litchi.lib.server.static -->
<g id="node19" class="node">
<title>litchi.lib.server.static</title>
<polygon fill="none" stroke="black" points="875.62,-108 745.62,-108 745.62,-72 875.62,-72 875.62,-108"/>
<text text-anchor="middle" x="810.62" y="-84.95" font-family="Times,serif" font-size="14.00">litchi.lib.server.static</text>
</g>
<!-- litchi&#45;&gt;litchi.lib.server.static -->
<g id="edge3" class="edge">
<title>litchi&#45;&gt;litchi.lib.server.static</title>
<path fill="none" stroke="black" d="M642.85,-29.12C649.02,-31.4 655.54,-33.79 661.62,-36 690.91,-46.62 723.49,-58.23 750.71,-67.88"/>
<polygon fill="black" stroke="black" points="760.09,-71.2 749.17,-72.1 756.53,-69.94 750.67,-67.86 750.67,-67.86 750.67,-67.86 756.53,-69.94 752.17,-63.62 760.09,-71.2"/>
</g>
<!-- litchi.main -->
<g id="node31" class="node">
<title>litchi.main</title>
<polygon fill="none" stroke="black" points="590.25,-108 515,-108 515,-72 590.25,-72 590.25,-108"/>
<text text-anchor="middle" x="552.62" y="-84.95" font-family="Times,serif" font-size="14.00">litchi.main</text>
</g>
<!-- litchi&#45;&gt;litchi.main -->
<g id="edge4" class="edge">
<title>litchi&#45;&gt;litchi.main</title>
<path fill="none" stroke="black" d="M600.05,-36.3C592.65,-44.53 583.66,-54.52 575.5,-63.58"/>
<polygon fill="black" stroke="black" points="568.83,-70.99 572.18,-60.55 571.36,-68.18 575.52,-63.56 575.52,-63.56 575.52,-63.56 571.36,-68.18 578.87,-66.57 568.83,-70.99"/>
</g>
<!-- litchi.csound -->
<g id="node2" class="node">
<title>litchi.csound</title>
<polygon fill="none" stroke="black" points="963.5,-36 877.75,-36 877.75,0 963.5,0 963.5,-36"/>
<text text-anchor="middle" x="920.62" y="-12.95" font-family="Times,serif" font-size="14.00">litchi.csound</text>
</g>
<!-- litchi.csound.main -->
<g id="node3" class="node">
<title>litchi.csound.main</title>
<polygon fill="none" stroke="black" points="767.25,-180 650,-180 650,-144 767.25,-144 767.25,-180"/>
<text text-anchor="middle" x="708.62" y="-156.95" font-family="Times,serif" font-size="14.00">litchi.csound.main</text>
</g>
<!-- litchi.csound.player -->
<g id="node4" class="node">
<title>litchi.csound.player</title>
<polygon fill="none" stroke="black" points="930.25,-252 807,-252 807,-216 930.25,-216 930.25,-252"/>
<text text-anchor="middle" x="868.62" y="-228.95" font-family="Times,serif" font-size="14.00">litchi.csound.player</text>
</g>
<!-- litchi.csound.main&#45;&gt;litchi.csound.player -->
<g id="edge5" class="edge">
<title>litchi.csound.main&#45;&gt;litchi.csound.player</title>
<path fill="none" stroke="black" d="M748.59,-180.48C769.86,-189.79 796.22,-201.32 818.81,-211.21"/>
<polygon fill="black" stroke="black" points="827.78,-215.13 816.81,-215.24 824.31,-213.61 818.62,-211.12 818.62,-211.12 818.62,-211.12 824.31,-213.61 820.42,-207 827.78,-215.13"/>
</g>
<!-- litchi.csound.score.builder -->
<g id="node6" class="node">
<title>litchi.csound.score.builder</title>
<polygon fill="none" stroke="black" points="788.62,-252 628.62,-252 628.62,-216 788.62,-216 788.62,-252"/>
<text text-anchor="middle" x="708.62" y="-228.95" font-family="Times,serif" font-size="14.00">litchi.csound.score.builder</text>
</g>
<!-- litchi.csound.main&#45;&gt;litchi.csound.score.builder -->
<g id="edge6" class="edge">
<title>litchi.csound.main&#45;&gt;litchi.csound.score.builder</title>
<path fill="none" stroke="black" d="M708.62,-180.3C708.62,-187.68 708.62,-196.48 708.62,-204.75"/>
<polygon fill="black" stroke="black" points="708.63,-214.68 704.13,-204.68 708.63,-210.9 708.63,-204.68 708.63,-204.68 708.63,-204.68 708.63,-210.9 713.13,-204.68 708.63,-214.68"/>
</g>
<!-- litchi.lib.const -->
<g id="node10" class="node">
<title>litchi.lib.const</title>
<polygon fill="none" stroke="black" points="1061.62,-324 967.62,-324 967.62,-288 1061.62,-288 1061.62,-324"/>
<text text-anchor="middle" x="1014.62" y="-300.95" font-family="Times,serif" font-size="14.00">litchi.lib.const</text>
</g>
<!-- litchi.csound.player&#45;&gt;litchi.lib.const -->
<g id="edge7" class="edge">
<title>litchi.csound.player&#45;&gt;litchi.lib.const</title>
<path fill="none" stroke="black" d="M905.09,-252.48C924.24,-261.66 947.9,-273.01 968.33,-282.8"/>
<polygon fill="black" stroke="black" points="977.27,-287.09 966.31,-286.83 973.86,-285.46 968.26,-282.77 968.26,-282.77 968.26,-282.77 973.86,-285.46 970.2,-278.71 977.27,-287.09"/>
</g>
<!-- litchi.csound.score -->
<g id="node5" class="node">
<title>litchi.csound.score</title>
<polygon fill="none" stroke="black" points="1286.62,-36 1168.62,-36 1168.62,0 1286.62,0 1286.62,-36"/>
<text text-anchor="middle" x="1227.62" y="-12.95" font-family="Times,serif" font-size="14.00">litchi.csound.score</text>
</g>
<!-- litchi.csound.score.operator -->
<g id="node7" class="node">
<title>litchi.csound.score.operator</title>
<polygon fill="none" stroke="black" points="1311,-108 1144.25,-108 1144.25,-72 1311,-72 1311,-108"/>
<text text-anchor="middle" x="1227.62" y="-84.95" font-family="Times,serif" font-size="14.00">litchi.csound.score.operator</text>
</g>
<!-- litchi.csound.score&#45;&gt;litchi.csound.score.operator -->
<g id="edge8" class="edge">
<title>litchi.csound.score&#45;&gt;litchi.csound.score.operator</title>
<path fill="none" stroke="black" d="M1227.62,-36.3C1227.62,-43.68 1227.62,-52.48 1227.62,-60.75"/>
<polygon fill="black" stroke="black" points="1227.63,-70.68 1223.13,-60.68 1227.63,-66.9 1227.63,-60.68 1227.63,-60.68 1227.63,-60.68 1227.63,-66.9 1232.13,-60.68 1227.63,-70.68"/>
</g>
<!-- litchi.lilypond.const -->
<g id="node24" class="node">
<title>litchi.lilypond.const</title>
<polygon fill="none" stroke="black" points="579,-324 454.25,-324 454.25,-288 579,-288 579,-324"/>
<text text-anchor="middle" x="516.62" y="-300.95" font-family="Times,serif" font-size="14.00">litchi.lilypond.const</text>
</g>
<!-- litchi.csound.score.builder&#45;&gt;litchi.lilypond.const -->
<g id="edge9" class="edge">
<title>litchi.csound.score.builder&#45;&gt;litchi.lilypond.const</title>
<path fill="none" stroke="black" d="M660.67,-252.48C634.57,-262 602.09,-273.84 574.58,-283.87"/>
<polygon fill="black" stroke="black" points="565.45,-287.2 573.3,-279.55 569,-285.91 574.84,-283.78 574.84,-283.78 574.84,-283.78 569,-285.91 576.38,-288 565.45,-287.2"/>
</g>
<!-- litchi.lilypond.utils -->
<g id="node30" class="node">
<title>litchi.lilypond.utils</title>
<polygon fill="none" stroke="black" points="576.38,-396 456.88,-396 456.88,-360 576.38,-360 576.38,-396"/>
<text text-anchor="middle" x="516.62" y="-372.95" font-family="Times,serif" font-size="14.00">litchi.lilypond.utils</text>
</g>
<!-- litchi.csound.score.builder&#45;&gt;litchi.lilypond.utils -->
<g id="edge10" class="edge">
<title>litchi.csound.score.builder&#45;&gt;litchi.lilypond.utils</title>
<path fill="none" stroke="black" d="M685.08,-252.41C650.87,-277.71 587.32,-324.71 548.81,-353.2"/>
<polygon fill="black" stroke="black" points="541.04,-358.94 546.4,-349.38 544.08,-356.69 549.08,-353 549.08,-353 549.08,-353 544.08,-356.69 551.76,-356.62 541.04,-358.94"/>
</g>
<!-- litchi.lib -->
<g id="node8" class="node">
<title>litchi.lib</title>
<polygon fill="none" stroke="black" points="1366.5,-36 1304.75,-36 1304.75,0 1366.5,0 1366.5,-36"/>
<text text-anchor="middle" x="1335.62" y="-12.95" font-family="Times,serif" font-size="14.00">litchi.lib</text>
</g>
<!-- litchi.lib.composition -->
<g id="node9" class="node">
<title>litchi.lib.composition</title>
<polygon fill="none" stroke="black" points="1517.12,-36 1384.12,-36 1384.12,0 1517.12,0 1517.12,-36"/>
<text text-anchor="middle" x="1450.62" y="-12.95" font-family="Times,serif" font-size="14.00">litchi.lib.composition</text>
</g>
<!-- litchi.lib.engraving -->
<g id="node11" class="node">
<title>litchi.lib.engraving</title>
<polygon fill="none" stroke="black" points="1106.38,-252 986.88,-252 986.88,-216 1106.38,-216 1106.38,-252"/>
<text text-anchor="middle" x="1046.62" y="-228.95" font-family="Times,serif" font-size="14.00">litchi.lib.engraving</text>
</g>
<!-- litchi.lib.graphic_render -->
<g id="node12" class="node">
<title>litchi.lib.graphic_render</title>
<polygon fill="none" stroke="black" points="1682.25,-36 1535,-36 1535,0 1682.25,0 1682.25,-36"/>
<text text-anchor="middle" x="1608.62" y="-12.95" font-family="Times,serif" font-size="14.00">litchi.lib.graphic_render</text>
</g>
<!-- litchi.lib.ji -->
<g id="node13" class="node">
<title>litchi.lib.ji</title>
<polygon fill="none" stroke="black" points="1126.12,-108 1053.12,-108 1053.12,-72 1126.12,-72 1126.12,-108"/>
<text text-anchor="middle" x="1089.62" y="-84.95" font-family="Times,serif" font-size="14.00">litchi.lib.ji</text>
</g>
<!-- litchi.lib.ji&#45;&gt;litchi.lib.const -->
<g id="edge11" class="edge">
<title>litchi.lib.ji&#45;&gt;litchi.lib.const</title>
<path fill="none" stroke="black" d="M1066.19,-108.18C1038.9,-129.79 995.32,-169.73 977.62,-216 971.91,-230.94 972.82,-236.74 977.62,-252 980.63,-261.54 986.02,-270.86 991.78,-278.96"/>
<polygon fill="black" stroke="black" points="997.85,-286.88 988.19,-281.68 995.55,-283.88 991.77,-278.94 991.77,-278.94 991.77,-278.94 995.55,-283.88 995.34,-276.2 997.85,-286.88"/>
</g>
<!-- litchi.lib.ji&#45;&gt;litchi.lib.engraving -->
<g id="edge12" class="edge">
<title>litchi.lib.ji&#45;&gt;litchi.lib.engraving</title>
<path fill="none" stroke="black" d="M1079.74,-108.17C1074.28,-118.31 1067.78,-131.56 1063.62,-144 1057.03,-163.73 1052.71,-186.83 1050.08,-204.55"/>
<polygon fill="black" stroke="black" points="1048.72,-214.38 1045.63,-203.86 1049.24,-210.64 1050.09,-204.48 1050.09,-204.48 1050.09,-204.48 1049.24,-210.64 1054.55,-205.09 1048.72,-214.38"/>
</g>
<!-- litchi.lib.utils -->
<g id="node20" class="node">
<title>litchi.lib.utils</title>
<polygon fill="none" stroke="black" points="1304,-180 1215.25,-180 1215.25,-144 1304,-144 1304,-180"/>
<text text-anchor="middle" x="1259.62" y="-156.95" font-family="Times,serif" font-size="14.00">litchi.lib.utils</text>
</g>
<!-- litchi.lib.ji&#45;&gt;litchi.lib.utils -->
<g id="edge13" class="edge">
<title>litchi.lib.ji&#45;&gt;litchi.lib.utils</title>
<path fill="none" stroke="black" d="M1126.51,-106.19C1150.13,-115.92 1181.15,-128.69 1207.29,-139.45"/>
<polygon fill="black" stroke="black" points="1216.3,-143.16 1205.33,-143.51 1212.8,-141.72 1207.05,-139.35 1207.05,-139.35 1207.05,-139.35 1212.8,-141.72 1208.76,-135.19 1216.3,-143.16"/>
</g>
<!-- litchi.lib.utils_abjad -->
<g id="node21" class="node">
<title>litchi.lib.utils_abjad</title>
<polygon fill="none" stroke="black" points="1197,-180 1072.25,-180 1072.25,-144 1197,-144 1197,-180"/>
<text text-anchor="middle" x="1134.62" y="-156.95" font-family="Times,serif" font-size="14.00">litchi.lib.utils_abjad</text>
</g>
<!-- litchi.lib.ji&#45;&gt;litchi.lib.utils_abjad -->
<g id="edge14" class="edge">
<title>litchi.lib.ji&#45;&gt;litchi.lib.utils_abjad</title>
<path fill="none" stroke="black" d="M1100.75,-108.3C1105.87,-116.27 1112.06,-125.9 1117.74,-134.74"/>
<polygon fill="black" stroke="black" points="1122.97,-142.87 1113.78,-136.89 1120.93,-139.69 1117.56,-134.46 1117.56,-134.46 1117.56,-134.46 1120.93,-139.69 1121.35,-132.03 1122.97,-142.87"/>
</g>
<!-- litchi.lib.scala -->
<g id="node15" class="node">
<title>litchi.lib.scala</title>
<polygon fill="none" stroke="black" points="1254.88,-252 1162.38,-252 1162.38,-216 1254.88,-216 1254.88,-252"/>
<text text-anchor="middle" x="1208.62" y="-228.95" font-family="Times,serif" font-size="14.00">litchi.lib.scala</text>
</g>
<!-- litchi.lib.scala&#45;&gt;litchi.lib.const -->
<g id="edge15" class="edge">
<title>litchi.lib.scala&#45;&gt;litchi.lib.const</title>
<path fill="none" stroke="black" d="M1162.16,-251.77C1135.2,-261.49 1101.02,-273.83 1072.35,-284.17"/>
<polygon fill="black" stroke="black" points="1063.21,-287.47 1071.09,-279.84 1066.76,-286.19 1072.61,-284.08 1072.61,-284.08 1072.61,-284.08 1066.76,-286.19 1074.14,-288.31 1063.21,-287.47"/>
</g>
<!-- litchi.lib.scala_exporter -->
<g id="node16" class="node">
<title>litchi.lib.scala_exporter</title>
<polygon fill="none" stroke="black" points="1280.75,-324 1136.5,-324 1136.5,-288 1280.75,-288 1280.75,-324"/>
<text text-anchor="middle" x="1208.62" y="-300.95" font-family="Times,serif" font-size="14.00">litchi.lib.scala_exporter</text>
</g>
<!-- litchi.lib.scala&#45;&gt;litchi.lib.scala_exporter -->
<g id="edge16" class="edge">
<title>litchi.lib.scala&#45;&gt;litchi.lib.scala_exporter</title>
<path fill="none" stroke="black" d="M1208.62,-252.3C1208.62,-259.68 1208.62,-268.48 1208.62,-276.75"/>
<polygon fill="black" stroke="black" points="1208.63,-286.68 1204.13,-276.68 1208.63,-282.9 1208.63,-276.68 1208.63,-276.68 1208.63,-276.68 1208.63,-282.9 1213.13,-276.68 1208.63,-286.68"/>
</g>
<!-- litchi.lib.server -->
<g id="node17" class="node">
<title>litchi.lib.server</title>
<polygon fill="none" stroke="black" points="768.88,-36 670.38,-36 670.38,0 768.88,0 768.88,-36"/>
<text text-anchor="middle" x="719.62" y="-12.95" font-family="Times,serif" font-size="14.00">litchi.lib.server</text>
</g>
<!-- litchi.lib.server&#45;&gt;litchi.lib.server.run -->
<g id="edge17" class="edge">
<title>litchi.lib.server&#45;&gt;litchi.lib.server.run</title>
<path fill="none" stroke="black" d="M706.77,-36.3C700.79,-44.36 693.55,-54.11 686.93,-63.02"/>
<polygon fill="black" stroke="black" points="681.06,-70.92 683.41,-60.21 683.31,-67.88 687.02,-62.89 687.02,-62.89 687.02,-62.89 683.31,-67.88 690.63,-65.57 681.06,-70.92"/>
</g>
<!-- litchi.lib.server&#45;&gt;litchi.lib.server.static -->
<g id="edge18" class="edge">
<title>litchi.lib.server&#45;&gt;litchi.lib.server.static</title>
<path fill="none" stroke="black" d="M742.12,-36.3C753.39,-44.97 767.2,-55.6 779.47,-65.04"/>
<polygon fill="black" stroke="black" points="787.11,-70.91 776.44,-68.38 784.11,-68.6 779.18,-64.81 779.18,-64.81 779.18,-64.81 784.11,-68.6 781.93,-61.25 787.11,-70.91"/>
</g>
<!-- litchi.lib.utils_abjad&#45;&gt;litchi.lib.const -->
<g id="edge19" class="edge">
<title>litchi.lib.utils_abjad&#45;&gt;litchi.lib.const</title>
<path fill="none" stroke="black" d="M1135.11,-180.17C1134.8,-199.51 1131.57,-230.98 1115.62,-252 1104.57,-266.57 1088.36,-277.52 1072.14,-285.57"/>
<polygon fill="black" stroke="black" points="1063.19,-289.71 1070.38,-281.43 1066.62,-288.12 1072.27,-285.51 1072.27,-285.51 1072.27,-285.51 1066.62,-288.12 1074.15,-289.6 1063.19,-289.71"/>
</g>
<!-- litchi.lib.utils_abjad&#45;&gt;litchi.lib.engraving -->
<g id="edge20" class="edge">
<title>litchi.lib.utils_abjad&#45;&gt;litchi.lib.engraving</title>
<path fill="none" stroke="black" d="M1112.87,-180.3C1102.08,-188.89 1088.87,-199.39 1077.1,-208.76"/>
<polygon fill="black" stroke="black" points="1069.39,-214.89 1074.41,-205.15 1072.35,-212.54 1077.21,-208.67 1077.21,-208.67 1077.21,-208.67 1072.35,-212.54 1080.01,-212.19 1069.39,-214.89"/>
</g>
<!-- litchi.lib.utils_abjad&#45;&gt;litchi.lib.scala -->
<g id="edge21" class="edge">
<title>litchi.lib.utils_abjad&#45;&gt;litchi.lib.scala</title>
<path fill="none" stroke="black" d="M1152.92,-180.3C1161.81,-188.72 1172.66,-198.98 1182.42,-208.21"/>
<polygon fill="black" stroke="black" points="1189.4,-214.82 1179.04,-211.21 1186.65,-212.22 1182.14,-207.94 1182.14,-207.94 1182.14,-207.94 1186.65,-212.22 1185.23,-204.67 1189.4,-214.82"/>
</g>
<!-- litchi.lilypond -->
<g id="node22" class="node">
<title>litchi.lilypond</title>
<polygon fill="none" stroke="black" points="1792.88,-36 1700.38,-36 1700.38,0 1792.88,0 1792.88,-36"/>
<text text-anchor="middle" x="1746.62" y="-12.95" font-family="Times,serif" font-size="14.00">litchi.lilypond</text>
</g>
<!-- litchi.lilypond.classes -->
<g id="node23" class="node">
<title>litchi.lilypond.classes</title>
<polygon fill="none" stroke="black" points="436.5,-324 302.75,-324 302.75,-288 436.5,-288 436.5,-324"/>
<text text-anchor="middle" x="369.62" y="-300.95" font-family="Times,serif" font-size="14.00">litchi.lilypond.classes</text>
</g>
<!-- litchi.lilypond.const&#45;&gt;litchi.lilypond.utils -->
<g id="edge22" class="edge">
<title>litchi.lilypond.const&#45;&gt;litchi.lilypond.utils</title>
<path fill="none" stroke="black" d="M516.62,-324.3C516.62,-331.68 516.62,-340.48 516.62,-348.75"/>
<polygon fill="black" stroke="black" points="516.63,-358.68 512.13,-348.68 516.63,-354.9 516.63,-348.68 516.63,-348.68 516.63,-348.68 516.63,-354.9 521.13,-348.68 516.63,-358.68"/>
</g>
<!-- litchi.lilypond.main -->
<g id="node25" class="node">
<title>litchi.lilypond.main</title>
<polygon fill="none" stroke="black" points="458.62,-180 334.62,-180 334.62,-144 458.62,-144 458.62,-180"/>
<text text-anchor="middle" x="396.62" y="-156.95" font-family="Times,serif" font-size="14.00">litchi.lilypond.main</text>
</g>
<!-- litchi.lilypond.processor.articulation -->
<g id="node27" class="node">
<title>litchi.lilypond.processor.articulation</title>
<polygon fill="none" stroke="black" points="610.88,-252 398.38,-252 398.38,-216 610.88,-216 610.88,-252"/>
<text text-anchor="middle" x="504.62" y="-228.95" font-family="Times,serif" font-size="14.00">litchi.lilypond.processor.articulation</text>
</g>
<!-- litchi.lilypond.main&#45;&gt;litchi.lilypond.processor.articulation -->
<g id="edge23" class="edge">
<title>litchi.lilypond.main&#45;&gt;litchi.lilypond.processor.articulation</title>
<path fill="none" stroke="black" d="M423.6,-180.48C437.23,-189.32 453.96,-200.16 468.67,-209.7"/>
<polygon fill="black" stroke="black" points="476.97,-215.08 466.13,-213.41 473.8,-213.02 468.58,-209.64 468.58,-209.64 468.58,-209.64 473.8,-213.02 471.03,-205.86 476.97,-215.08"/>
</g>
<!-- litchi.lilypond.processor.node -->
<g id="node28" class="node">
<title>litchi.lilypond.processor.node</title>
<polygon fill="none" stroke="black" points="177.25,-252 0,-252 0,-216 177.25,-216 177.25,-252"/>
<text text-anchor="middle" x="88.62" y="-228.95" font-family="Times,serif" font-size="14.00">litchi.lilypond.processor.node</text>
</g>
<!-- litchi.lilypond.main&#45;&gt;litchi.lilypond.processor.node -->
<g id="edge24" class="edge">
<title>litchi.lilypond.main&#45;&gt;litchi.lilypond.processor.node</title>
<path fill="none" stroke="black" d="M334.3,-177.17C288.93,-187.48 226.89,-201.58 176.5,-213.03"/>
<polygon fill="black" stroke="black" points="166.8,-215.23 175.55,-208.63 170.48,-214.4 176.55,-213.02 176.55,-213.02 176.55,-213.02 170.48,-214.4 177.54,-217.41 166.8,-215.23"/>
</g>
<!-- litchi.lilypond.processor.param -->
<g id="node29" class="node">
<title>litchi.lilypond.processor.param</title>
<polygon fill="none" stroke="black" points="380.38,-252 194.88,-252 194.88,-216 380.38,-216 380.38,-252"/>
<text text-anchor="middle" x="287.62" y="-228.95" font-family="Times,serif" font-size="14.00">litchi.lilypond.processor.param</text>
</g>
<!-- litchi.lilypond.main&#45;&gt;litchi.lilypond.processor.param -->
<g id="edge25" class="edge">
<title>litchi.lilypond.main&#45;&gt;litchi.lilypond.processor.param</title>
<path fill="none" stroke="black" d="M369.4,-180.48C355.64,-189.32 338.76,-200.16 323.91,-209.7"/>
<polygon fill="black" stroke="black" points="315.53,-215.08 321.51,-205.89 318.71,-213.04 323.94,-209.68 323.94,-209.68 323.94,-209.68 318.71,-213.04 326.37,-213.46 315.53,-215.08"/>
</g>
<!-- litchi.lilypond.processor -->
<g id="node26" class="node">
<title>litchi.lilypond.processor</title>
<polygon fill="none" stroke="black" points="1958.62,-36 1810.62,-36 1810.62,0 1958.62,0 1958.62,-36"/>
<text text-anchor="middle" x="1884.62" y="-12.95" font-family="Times,serif" font-size="14.00">litchi.lilypond.processor</text>
</g>
<!-- litchi.lilypond.processor.articulation&#45;&gt;litchi.lilypond.classes -->
<g id="edge26" class="edge">
<title>litchi.lilypond.processor.articulation&#45;&gt;litchi.lilypond.classes</title>
<path fill="none" stroke="black" d="M470.91,-252.48C453.3,-261.61 431.56,-272.89 412.74,-282.65"/>
<polygon fill="black" stroke="black" points="403.99,-287.18 410.8,-278.58 407.35,-285.44 412.87,-282.58 412.87,-282.58 412.87,-282.58 407.35,-285.44 414.94,-286.57 403.99,-287.18"/>
</g>
<!-- litchi.lilypond.processor.articulation&#45;&gt;litchi.lilypond.const -->
<g id="edge27" class="edge">
<title>litchi.lilypond.processor.articulation&#45;&gt;litchi.lilypond.const</title>
<path fill="none" stroke="black" d="M507.59,-252.3C508.87,-259.76 510.4,-268.68 511.83,-277.03"/>
<polygon fill="black" stroke="black" points="513.49,-286.69 507.36,-277.6 512.85,-282.97 511.8,-276.84 511.8,-276.84 511.8,-276.84 512.85,-282.97 516.23,-276.08 513.49,-286.69"/>
</g>
<!-- litchi.lilypond.processor.node&#45;&gt;litchi.lilypond.classes -->
<g id="edge28" class="edge">
<title>litchi.lilypond.processor.node&#45;&gt;litchi.lilypond.classes</title>
<path fill="none" stroke="black" d="M158.81,-252.48C199.18,-262.54 250,-275.2 291.62,-285.57"/>
<polygon fill="black" stroke="black" points="301.09,-287.93 290.3,-289.88 297.42,-287.01 291.39,-285.51 291.39,-285.51 291.39,-285.51 297.42,-287.01 292.47,-281.14 301.09,-287.93"/>
</g>
<!-- litchi.lilypond.processor.param&#45;&gt;litchi.lilypond.classes -->
<g id="edge29" class="edge">
<title>litchi.lilypond.processor.param&#45;&gt;litchi.lilypond.classes</title>
<path fill="none" stroke="black" d="M307.89,-252.3C317.85,-260.8 330.02,-271.19 340.91,-280.49"/>
<polygon fill="black" stroke="black" points="348.38,-286.86 337.85,-283.79 345.5,-284.41 340.77,-280.37 340.77,-280.37 340.77,-280.37 345.5,-284.41 343.69,-276.95 348.38,-286.86"/>
</g>
<!-- litchi.lilypond.processor.param&#45;&gt;litchi.lilypond.const -->
<g id="edge30" class="edge">
<title>litchi.lilypond.processor.param&#45;&gt;litchi.lilypond.const</title>
<path fill="none" stroke="black" d="M344.82,-252.48C376.5,-262.17 416.06,-274.26 449.23,-284.4"/>
<polygon fill="black" stroke="black" points="458.6,-287.26 447.72,-288.64 454.98,-286.16 449.03,-284.34 449.03,-284.34 449.03,-284.34 454.98,-286.16 450.35,-280.04 458.6,-287.26"/>
</g>
<!-- litchi.lilypond.processor.param&#45;&gt;litchi.lilypond.utils -->
<g id="edge31" class="edge">
<title>litchi.lilypond.processor.param&#45;&gt;litchi.lilypond.utils</title>
<path fill="none" stroke="black" d="M283.31,-252.28C279.49,-272.02 276.82,-304.14 293.62,-324 313.13,-347.04 387.84,-361.39 445.47,-369.25"/>
<polygon fill="black" stroke="black" points="455.18,-370.53 444.67,-373.69 451.43,-370.04 445.26,-369.22 445.26,-369.22 445.26,-369.22 451.43,-370.04 445.85,-364.76 455.18,-370.53"/>
</g>
<!-- litchi.main&#45;&gt;litchi.csound.main -->
<g id="edge32" class="edge">
<title>litchi.main&#45;&gt;litchi.csound.main</title>
<path fill="none" stroke="black" d="M590.39,-107.95C611.27,-117.31 637.44,-129.06 659.85,-139.12"/>
<polygon fill="black" stroke="black" points="668.74,-143.1 657.78,-143.12 665.29,-141.56 659.62,-139.01 659.62,-139.01 659.62,-139.01 665.29,-141.56 661.46,-134.9 668.74,-143.1"/>
</g>
<!-- litchi.main&#45;&gt;litchi.lilypond.main -->
<g id="edge33" class="edge">
<title>litchi.main&#45;&gt;litchi.lilypond.main</title>
<path fill="none" stroke="black" d="M514.86,-107.95C493.98,-117.31 467.81,-129.06 445.4,-139.12"/>
<polygon fill="black" stroke="black" points="436.51,-143.1 443.79,-134.9 439.96,-141.56 445.63,-139.01 445.63,-139.01 445.63,-139.01 439.96,-141.56 447.47,-143.12 436.51,-143.1"/>
</g>
</g>
</svg>
